<?xml version="1.0" encoding="UTF-8"?>
<svg xmlns="http://www.w3.org/2000/svg" xmlns:xlink="http://www.w3.org/1999/xlink" width="24px" height="24px" viewBox="0 0 24 24" version="1.1">
<g id="surface1">
<path style=" stroke:none;fill-rule:nonzero;fill:rgb(100%,100%,100%);fill-opacity:1;" d="M 4.914062 9.976562 C 4.949219 9.976562 4.949219 9.976562 4.984375 9.976562 C 5.191406 9.976562 5.382812 10.011719 5.554688 10.140625 C 5.570312 10.152344 5.589844 10.167969 5.609375 10.183594 C 5.628906 10.195312 5.644531 10.210938 5.664062 10.222656 C 5.683594 10.238281 5.699219 10.25 5.71875 10.261719 C 5.738281 10.277344 5.738281 10.277344 5.761719 10.296875 C 5.761719 10.3125 5.761719 10.328125 5.761719 10.34375 C 5.785156 10.34375 5.808594 10.34375 5.832031 10.34375 C 5.832031 10.328125 5.832031 10.3125 5.832031 10.296875 C 6.09375 10.082031 6.332031 9.976562 6.667969 9.976562 C 6.699219 9.976562 6.699219 9.976562 6.734375 9.976562 C 7.058594 9.976562 7.308594 10.097656 7.542969 10.316406 C 7.640625 10.417969 7.710938 10.53125 7.777344 10.65625 C 7.785156 10.675781 7.796875 10.695312 7.804688 10.714844 C 7.921875 10.96875 7.914062 11.308594 7.824219 11.574219 C 7.746094 11.738281 7.640625 11.875 7.511719 12 C 7.546875 12.074219 7.582031 12.125 7.640625 12.179688 C 7.863281 12.433594 7.890625 12.722656 7.878906 13.046875 C 7.859375 13.21875 7.785156 13.382812 7.703125 13.535156 C 7.6875 13.535156 7.671875 13.535156 7.65625 13.535156 C 7.648438 13.554688 7.644531 13.570312 7.636719 13.589844 C 7.539062 13.804688 7.289062 13.929688 7.078125 14.015625 C 6.953125 14.054688 6.820312 14.046875 6.691406 14.046875 C 6.648438 14.046875 6.648438 14.046875 6.609375 14.046875 C 6.320312 14.050781 6.089844 13.945312 5.867188 13.753906 C 5.816406 13.699219 5.816406 13.699219 5.761719 13.703125 C 5.753906 13.726562 5.746094 13.75 5.734375 13.777344 C 5.683594 13.816406 5.632812 13.851562 5.578125 13.886719 C 5.5625 13.894531 5.546875 13.90625 5.53125 13.914062 C 5.339844 14.039062 5.160156 14.046875 4.933594 14.046875 C 4.894531 14.046875 4.894531 14.046875 4.855469 14.046875 C 4.554688 14.050781 4.316406 13.953125 4.097656 13.75 C 3.988281 13.632812 3.90625 13.511719 3.839844 13.367188 C 3.828125 13.339844 3.816406 13.3125 3.800781 13.285156 C 3.753906 13.152344 3.757812 13.019531 3.757812 12.878906 C 3.757812 12.839844 3.757812 12.839844 3.757812 12.800781 C 3.757812 12.574219 3.8125 12.390625 3.949219 12.207031 C 4.003906 12.132812 4.058594 12.058594 4.105469 11.976562 C 4.089844 11.976562 4.074219 11.976562 4.054688 11.976562 C 3.84375 11.722656 3.761719 11.496094 3.761719 11.171875 C 3.761719 11.144531 3.757812 11.121094 3.757812 11.09375 C 3.757812 10.820312 3.84375 10.609375 4.007812 10.390625 C 4.023438 10.371094 4.039062 10.347656 4.054688 10.328125 C 4.289062 10.070312 4.578125 9.976562 4.914062 9.976562 Z M 4.34375 10.558594 C 4.175781 10.746094 4.09375 10.945312 4.097656 11.203125 C 4.117188 11.40625 4.183594 11.558594 4.320312 11.710938 C 4.335938 11.730469 4.351562 11.75 4.367188 11.769531 C 4.476562 11.894531 4.59375 12.007812 4.71875 12.117188 C 4.792969 12.1875 4.867188 12.257812 4.9375 12.328125 C 5.015625 12.410156 5.097656 12.484375 5.183594 12.558594 C 5.21875 12.585938 5.25 12.617188 5.28125 12.644531 C 5.414062 12.765625 5.503906 12.824219 5.6875 12.816406 C 5.636719 12.910156 5.574219 12.984375 5.496094 13.0625 C 5.476562 13.085938 5.457031 13.105469 5.433594 13.128906 C 5.375 13.175781 5.375 13.175781 5.28125 13.175781 C 5.273438 13.15625 5.273438 13.15625 5.261719 13.132812 C 5.226562 13.066406 5.179688 13.027344 5.121094 12.980469 C 5.015625 12.886719 4.917969 12.789062 4.820312 12.6875 C 4.78125 12.644531 4.78125 12.644531 4.726562 12.648438 C 4.722656 12.636719 4.71875 12.621094 4.714844 12.609375 C 4.667969 12.53125 4.601562 12.472656 4.53125 12.414062 C 4.519531 12.402344 4.507812 12.390625 4.492188 12.378906 C 4.457031 12.347656 4.425781 12.316406 4.390625 12.289062 C 4.277344 12.328125 4.234375 12.425781 4.175781 12.527344 C 4.074219 12.769531 4.078125 13.003906 4.175781 13.246094 C 4.296875 13.464844 4.492188 13.621094 4.730469 13.6875 C 5 13.738281 5.214844 13.675781 5.449219 13.535156 C 5.539062 13.464844 5.617188 13.382812 5.699219 13.300781 C 5.722656 13.277344 5.742188 13.253906 5.765625 13.234375 C 5.824219 13.171875 5.882812 13.113281 5.941406 13.054688 C 5.988281 13.007812 6.035156 12.957031 6.082031 12.910156 C 6.183594 12.808594 6.28125 12.710938 6.378906 12.609375 C 6.394531 12.59375 6.414062 12.574219 6.429688 12.554688 C 6.5625 12.417969 6.605469 12.335938 6.601562 12.144531 C 6.632812 12.144531 6.664062 12.144531 6.695312 12.144531 C 6.695312 12.160156 6.695312 12.175781 6.695312 12.191406 C 6.738281 12.234375 6.738281 12.234375 6.789062 12.273438 C 6.820312 12.304688 6.855469 12.332031 6.886719 12.359375 C 6.902344 12.371094 6.917969 12.382812 6.933594 12.394531 C 6.960938 12.433594 6.960938 12.433594 6.957031 12.476562 C 6.929688 12.539062 6.898438 12.574219 6.851562 12.621094 C 6.832031 12.636719 6.816406 12.65625 6.796875 12.671875 C 6.769531 12.699219 6.769531 12.699219 6.742188 12.726562 C 6.621094 12.839844 6.507812 12.957031 6.398438 13.082031 C 6.339844 13.152344 6.273438 13.21875 6.207031 13.285156 C 6.191406 13.296875 6.179688 13.308594 6.167969 13.324219 C 6.136719 13.355469 6.101562 13.386719 6.070312 13.414062 C 6.199219 13.589844 6.367188 13.667969 6.574219 13.703125 C 6.828125 13.726562 7.054688 13.648438 7.246094 13.488281 C 7.417969 13.328125 7.511719 13.132812 7.519531 12.898438 C 7.515625 12.609375 7.398438 12.4375 7.199219 12.242188 C 7.152344 12.191406 7.101562 12.140625 7.054688 12.09375 C 6.996094 12.03125 6.933594 11.972656 6.875 11.910156 C 6.863281 11.898438 6.851562 11.886719 6.839844 11.875 C 6.804688 11.839844 6.769531 11.804688 6.734375 11.769531 C 6.714844 11.75 6.695312 11.730469 6.671875 11.707031 C 6.628906 11.660156 6.628906 11.660156 6.574219 11.664062 C 6.570312 11.648438 6.5625 11.636719 6.558594 11.621094 C 6.523438 11.5625 6.492188 11.53125 6.441406 11.488281 C 6.421875 11.472656 6.40625 11.457031 6.386719 11.445312 C 6.371094 11.429688 6.355469 11.414062 6.335938 11.398438 C 6.304688 11.371094 6.273438 11.347656 6.242188 11.320312 C 6.167969 11.253906 6.121094 11.230469 6.019531 11.230469 C 5.976562 11.230469 5.976562 11.230469 5.929688 11.230469 C 5.929688 11.199219 5.929688 11.167969 5.929688 11.136719 C 5.941406 11.128906 5.957031 11.125 5.96875 11.117188 C 6.058594 11.070312 6.117188 10.992188 6.1875 10.917969 C 6.238281 10.871094 6.238281 10.871094 6.335938 10.871094 C 6.335938 10.886719 6.335938 10.902344 6.335938 10.921875 C 6.367188 10.953125 6.367188 10.953125 6.410156 10.984375 C 6.472656 11.035156 6.523438 11.085938 6.574219 11.148438 C 6.621094 11.203125 6.671875 11.253906 6.730469 11.304688 C 6.898438 11.445312 7.046875 11.605469 7.199219 11.761719 C 7.222656 11.753906 7.246094 11.746094 7.273438 11.734375 C 7.273438 11.71875 7.273438 11.703125 7.273438 11.6875 C 7.289062 11.6875 7.304688 11.6875 7.320312 11.6875 C 7.476562 11.472656 7.539062 11.28125 7.511719 11.015625 C 7.457031 10.78125 7.335938 10.585938 7.136719 10.449219 C 6.914062 10.324219 6.695312 10.292969 6.453125 10.355469 C 6.238281 10.421875 6.070312 10.546875 5.925781 10.714844 C 5.851562 10.804688 5.773438 10.886719 5.691406 10.96875 C 5.675781 10.980469 5.664062 10.992188 5.652344 11.003906 C 5.597656 11.058594 5.546875 11.109375 5.492188 11.160156 C 5.453125 11.199219 5.414062 11.238281 5.375 11.277344 C 5.363281 11.289062 5.351562 11.300781 5.339844 11.3125 C 5.3125 11.339844 5.285156 11.371094 5.257812 11.398438 C 5.257812 11.414062 5.257812 11.433594 5.257812 11.449219 C 5.230469 11.457031 5.207031 11.464844 5.183594 11.472656 C 5.183594 11.488281 5.183594 11.503906 5.183594 11.519531 C 5.167969 11.519531 5.152344 11.519531 5.136719 11.519531 C 5.03125 11.640625 5 11.722656 4.992188 11.878906 C 4.890625 11.828125 4.820312 11.757812 4.742188 11.675781 C 4.707031 11.636719 4.707031 11.636719 4.65625 11.617188 C 4.667969 11.519531 4.691406 11.472656 4.761719 11.40625 C 4.777344 11.390625 4.792969 11.375 4.808594 11.359375 C 4.828125 11.34375 4.84375 11.324219 4.863281 11.308594 C 4.976562 11.199219 5.089844 11.085938 5.191406 10.964844 C 5.253906 10.894531 5.320312 10.828125 5.386719 10.765625 C 5.398438 10.75 5.414062 10.738281 5.425781 10.726562 C 5.457031 10.695312 5.488281 10.664062 5.519531 10.632812 C 5.46875 10.515625 5.390625 10.453125 5.28125 10.390625 C 4.953125 10.277344 4.601562 10.304688 4.34375 10.558594 Z M 4.34375 10.558594 "/>
<path style=" stroke:none;fill-rule:nonzero;fill:rgb(100%,100%,100%);fill-opacity:1;" d="M 10.308594 10.960938 C 10.554688 11.140625 10.707031 11.367188 10.765625 11.667969 C 10.800781 12.007812 10.765625 12.335938 10.558594 12.625 C 10.367188 12.839844 10.117188 12.96875 9.832031 12.988281 C 9.507812 13 9.230469 12.925781 8.976562 12.71875 C 8.753906 12.492188 8.664062 12.203125 8.65625 11.894531 C 8.660156 11.589844 8.757812 11.3125 8.964844 11.082031 C 9.328125 10.738281 9.890625 10.695312 10.308594 10.960938 Z M 9.214844 11.351562 C 9.042969 11.570312 9.042969 11.824219 9.066406 12.089844 C 9.089844 12.277344 9.1875 12.402344 9.332031 12.519531 C 9.5 12.628906 9.667969 12.644531 9.863281 12.625 C 10.058594 12.578125 10.195312 12.480469 10.304688 12.3125 C 10.410156 12.101562 10.402344 11.8125 10.351562 11.585938 C 10.273438 11.382812 10.15625 11.273438 9.960938 11.183594 C 9.6875 11.09375 9.425781 11.167969 9.214844 11.351562 Z M 9.214844 11.351562 "/>
<path style=" stroke:none;fill-rule:nonzero;fill:rgb(100%,100%,100%);fill-opacity:1;" d="M 12.1875 11.496094 C 12.390625 11.675781 12.484375 11.851562 12.511719 12.121094 C 12.519531 12.375 12.457031 12.597656 12.289062 12.792969 C 12.101562 12.945312 11.941406 12.996094 11.703125 12.992188 C 11.574219 12.980469 11.445312 12.933594 11.351562 12.839844 C 11.34375 13.0625 11.335938 13.285156 11.328125 13.511719 C 11.269531 13.511719 11.210938 13.511719 11.148438 13.511719 C 11.132812 13.515625 11.113281 13.515625 11.09375 13.515625 C 11.050781 13.515625 11.007812 13.511719 10.96875 13.511719 C 10.925781 13.46875 10.941406 13.410156 10.941406 13.355469 C 10.941406 13.335938 10.941406 13.316406 10.941406 13.296875 C 10.941406 13.277344 10.941406 13.253906 10.941406 13.234375 C 10.941406 13.167969 10.941406 13.101562 10.941406 13.035156 C 10.941406 12.988281 10.941406 12.941406 10.941406 12.894531 C 10.941406 12.773438 10.941406 12.652344 10.941406 12.53125 C 10.941406 12.40625 10.941406 12.28125 10.941406 12.15625 C 10.941406 11.914062 10.945312 11.667969 10.945312 11.425781 C 11.070312 11.425781 11.199219 11.425781 11.328125 11.425781 C 11.335938 11.464844 11.34375 11.503906 11.351562 11.542969 C 11.371094 11.523438 11.390625 11.507812 11.410156 11.488281 C 11.621094 11.3125 11.972656 11.339844 12.1875 11.496094 Z M 11.363281 11.902344 C 11.289062 12.054688 11.277344 12.222656 11.328125 12.386719 C 11.378906 12.507812 11.476562 12.589844 11.59375 12.648438 C 11.71875 12.664062 11.839844 12.671875 11.953125 12.597656 C 12.0625 12.503906 12.109375 12.378906 12.125 12.238281 C 12.128906 12.070312 12.101562 11.941406 11.992188 11.8125 C 11.902344 11.738281 11.839844 11.714844 11.730469 11.703125 C 11.574219 11.71875 11.464844 11.785156 11.363281 11.902344 Z M 11.363281 11.902344 "/>
<path style=" stroke:none;fill-rule:nonzero;fill:rgb(100%,100%,100%);fill-opacity:1;" d="M 20.089844 11.523438 C 20.21875 11.652344 20.242188 11.761719 20.242188 11.941406 C 20.242188 11.96875 20.242188 11.992188 20.242188 12.019531 C 20.242188 12.046875 20.242188 12.074219 20.242188 12.101562 C 20.242188 12.1875 20.238281 12.273438 20.238281 12.359375 C 20.238281 12.417969 20.238281 12.476562 20.238281 12.53125 C 20.234375 12.675781 20.234375 12.816406 20.230469 12.960938 C 20.128906 12.960938 20.027344 12.960938 19.921875 12.960938 C 19.902344 12.90625 19.886719 12.847656 19.871094 12.792969 C 19.855469 12.808594 19.855469 12.808594 19.839844 12.820312 C 19.683594 12.960938 19.554688 12.996094 19.347656 12.992188 C 19.199219 12.976562 19.085938 12.90625 18.972656 12.816406 C 18.875 12.6875 18.871094 12.539062 18.886719 12.382812 C 18.929688 12.253906 19.015625 12.171875 19.128906 12.097656 C 19.316406 12.011719 19.511719 11.996094 19.714844 12 C 19.742188 12 19.742188 12 19.769531 12 C 19.808594 12 19.851562 12 19.894531 12 C 19.886719 11.964844 19.875 11.929688 19.863281 11.894531 C 19.855469 11.875 19.851562 11.855469 19.84375 11.835938 C 19.828125 11.78125 19.828125 11.78125 19.777344 11.734375 C 19.664062 11.707031 19.550781 11.699219 19.441406 11.738281 C 19.355469 11.792969 19.332031 11.835938 19.296875 11.929688 C 19.25 11.929688 19.203125 11.929688 19.15625 11.929688 C 19.128906 11.929688 19.101562 11.929688 19.074219 11.929688 C 19.007812 11.929688 19.007812 11.929688 18.960938 11.902344 C 18.976562 11.742188 19.011719 11.625 19.132812 11.515625 C 19.214844 11.449219 19.289062 11.421875 19.390625 11.398438 C 19.421875 11.394531 19.449219 11.386719 19.476562 11.382812 C 19.695312 11.359375 19.910156 11.398438 20.089844 11.523438 Z M 19.269531 12.390625 C 19.238281 12.460938 19.238281 12.460938 19.273438 12.542969 C 19.3125 12.628906 19.3125 12.628906 19.390625 12.671875 C 19.53125 12.691406 19.660156 12.683594 19.777344 12.601562 C 19.84375 12.519531 19.875 12.457031 19.886719 12.355469 C 19.890625 12.324219 19.894531 12.296875 19.894531 12.265625 C 19.832031 12.261719 19.765625 12.261719 19.703125 12.257812 C 19.683594 12.257812 19.667969 12.257812 19.648438 12.257812 C 19.5 12.253906 19.375 12.277344 19.269531 12.390625 Z M 19.269531 12.390625 "/>
<path style=" stroke:none;fill-rule:nonzero;fill:rgb(100%,100%,100%);fill-opacity:1;" d="M 16.847656 11.398438 C 16.867188 11.402344 16.886719 11.40625 16.902344 11.410156 C 17.089844 11.457031 17.242188 11.589844 17.34375 11.753906 C 17.464844 11.988281 17.492188 12.242188 17.410156 12.5 C 17.324219 12.710938 17.183594 12.84375 16.976562 12.9375 C 16.769531 13.015625 16.539062 13.015625 16.335938 12.9375 C 16.15625 12.851562 16.011719 12.722656 15.921875 12.542969 C 15.851562 12.335938 15.84375 12.035156 15.925781 11.828125 C 16.042969 11.621094 16.203125 11.472656 16.433594 11.40625 C 16.578125 11.371094 16.703125 11.371094 16.847656 11.398438 Z M 16.335938 11.863281 C 16.25 12 16.230469 12.128906 16.246094 12.289062 C 16.285156 12.457031 16.367188 12.550781 16.511719 12.648438 C 16.644531 12.664062 16.761719 12.664062 16.882812 12.609375 C 16.957031 12.539062 16.996094 12.476562 17.039062 12.382812 C 17.046875 12.367188 17.054688 12.351562 17.0625 12.335938 C 17.078125 12.167969 17.078125 12.027344 16.992188 11.878906 C 16.914062 11.789062 16.84375 11.722656 16.726562 11.703125 C 16.554688 11.699219 16.457031 11.742188 16.335938 11.863281 Z M 16.335938 11.863281 "/>
<path style=" stroke:none;fill-rule:nonzero;fill:rgb(100%,100%,100%);fill-opacity:1;" d="M 15.410156 11.441406 C 15.539062 11.511719 15.625 11.59375 15.679688 11.730469 C 15.710938 11.835938 15.703125 11.945312 15.703125 12.050781 C 15.703125 12.078125 15.703125 12.101562 15.703125 12.128906 C 15.703125 12.210938 15.703125 12.289062 15.699219 12.371094 C 15.699219 12.425781 15.699219 12.480469 15.699219 12.535156 C 15.699219 12.667969 15.699219 12.800781 15.695312 12.9375 C 15.613281 12.960938 15.546875 12.957031 15.460938 12.949219 C 15.4375 12.945312 15.414062 12.945312 15.390625 12.941406 C 15.363281 12.9375 15.363281 12.9375 15.335938 12.9375 C 15.335938 12.90625 15.335938 12.878906 15.335938 12.851562 C 15.332031 12.746094 15.332031 12.640625 15.328125 12.535156 C 15.328125 12.488281 15.328125 12.445312 15.328125 12.398438 C 15.328125 12.332031 15.324219 12.269531 15.324219 12.203125 C 15.324219 12.183594 15.324219 12.164062 15.324219 12.140625 C 15.320312 12.011719 15.300781 11.921875 15.238281 11.808594 C 15.152344 11.730469 15.066406 11.722656 14.957031 11.730469 C 14.878906 11.738281 14.839844 11.753906 14.785156 11.808594 C 14.71875 11.949219 14.699219 12.089844 14.699219 12.246094 C 14.699219 12.265625 14.699219 12.285156 14.699219 12.304688 C 14.695312 12.367188 14.695312 12.429688 14.695312 12.492188 C 14.695312 12.535156 14.695312 12.578125 14.691406 12.621094 C 14.691406 12.726562 14.6875 12.832031 14.6875 12.9375 C 14.570312 12.9375 14.449219 12.9375 14.328125 12.9375 C 14.300781 12.859375 14.300781 12.804688 14.300781 12.726562 C 14.300781 12.699219 14.300781 12.667969 14.300781 12.640625 C 14.300781 12.609375 14.300781 12.578125 14.300781 12.546875 C 14.300781 12.515625 14.300781 12.484375 14.300781 12.453125 C 14.300781 12.386719 14.300781 12.320312 14.300781 12.253906 C 14.300781 12.171875 14.300781 12.085938 14.300781 12 C 14.300781 11.917969 14.300781 11.839844 14.300781 11.757812 C 14.300781 11.726562 14.300781 11.695312 14.300781 11.664062 C 14.300781 11.636719 14.300781 11.609375 14.300781 11.578125 C 14.300781 11.554688 14.300781 11.53125 14.300781 11.503906 C 14.304688 11.449219 14.304688 11.449219 14.328125 11.425781 C 14.390625 11.421875 14.449219 11.421875 14.507812 11.421875 C 14.527344 11.421875 14.542969 11.421875 14.5625 11.421875 C 14.601562 11.421875 14.644531 11.421875 14.6875 11.425781 C 14.695312 11.464844 14.703125 11.503906 14.710938 11.542969 C 14.734375 11.523438 14.757812 11.503906 14.78125 11.484375 C 14.9375 11.351562 15.226562 11.363281 15.410156 11.441406 Z M 15.410156 11.441406 "/>
<path style=" stroke:none;fill-rule:nonzero;fill:rgb(100%,100%,100%);fill-opacity:1;" d="M 17.503906 11.421875 C 17.539062 11.421875 17.570312 11.421875 17.605469 11.421875 C 17.621094 11.421875 17.640625 11.421875 17.65625 11.421875 C 17.699219 11.421875 17.742188 11.421875 17.785156 11.425781 C 17.789062 11.4375 17.792969 11.453125 17.800781 11.46875 C 17.914062 11.796875 18.027344 12.125 18.144531 12.457031 C 18.191406 12.386719 18.214844 12.332031 18.238281 12.25 C 18.25 12.226562 18.257812 12.199219 18.265625 12.171875 C 18.277344 12.144531 18.285156 12.117188 18.296875 12.085938 C 18.507812 11.46875 18.507812 11.46875 18.550781 11.425781 C 18.609375 11.421875 18.664062 11.421875 18.722656 11.421875 C 18.753906 11.421875 18.785156 11.421875 18.816406 11.421875 C 18.839844 11.421875 18.863281 11.421875 18.886719 11.425781 C 18.902344 11.570312 18.847656 11.675781 18.792969 11.808594 C 18.773438 11.851562 18.757812 11.894531 18.742188 11.9375 C 18.726562 11.972656 18.726562 11.972656 18.714844 12.003906 C 18.632812 12.214844 18.550781 12.421875 18.480469 12.636719 C 18.441406 12.738281 18.402344 12.835938 18.359375 12.9375 C 18.226562 12.9375 18.089844 12.9375 17.953125 12.9375 C 17.863281 12.726562 17.777344 12.519531 17.710938 12.304688 C 17.683594 12.226562 17.652344 12.148438 17.621094 12.074219 C 17.582031 11.96875 17.542969 11.867188 17.503906 11.761719 C 17.492188 11.734375 17.492188 11.734375 17.480469 11.703125 C 17.46875 11.671875 17.46875 11.671875 17.460938 11.644531 C 17.453125 11.628906 17.445312 11.609375 17.441406 11.59375 C 17.425781 11.542969 17.410156 11.496094 17.398438 11.449219 C 17.425781 11.425781 17.425781 11.425781 17.503906 11.421875 Z M 17.503906 11.421875 "/>
<path style=" stroke:none;fill-rule:nonzero;fill:rgb(100%,100%,100%);fill-opacity:1;" d="M 12.792969 11.015625 C 12.902344 11.015625 13.015625 11.015625 13.128906 11.015625 C 13.128906 11.152344 13.128906 11.285156 13.128906 11.425781 C 13.246094 11.425781 13.367188 11.425781 13.488281 11.425781 C 13.488281 11.519531 13.488281 11.613281 13.488281 11.710938 C 13.371094 11.710938 13.25 11.710938 13.128906 11.710938 C 13.128906 11.828125 13.128906 11.949219 13.132812 12.066406 C 13.132812 12.105469 13.132812 12.144531 13.132812 12.1875 C 13.136719 12.242188 13.136719 12.300781 13.136719 12.359375 C 13.136719 12.375 13.136719 12.394531 13.136719 12.414062 C 13.140625 12.496094 13.144531 12.542969 13.195312 12.613281 C 13.292969 12.679688 13.398438 12.652344 13.511719 12.648438 C 13.511719 12.734375 13.511719 12.820312 13.511719 12.910156 C 13.367188 12.984375 13.203125 12.988281 13.046875 12.945312 C 13 12.925781 13 12.925781 12.9375 12.886719 C 12.9375 12.871094 12.9375 12.855469 12.9375 12.839844 C 12.898438 12.828125 12.898438 12.828125 12.863281 12.816406 C 12.78125 12.695312 12.78125 12.589844 12.785156 12.449219 C 12.785156 12.425781 12.785156 12.40625 12.785156 12.382812 C 12.785156 12.316406 12.785156 12.25 12.789062 12.183594 C 12.789062 12.136719 12.789062 12.09375 12.789062 12.046875 C 12.789062 11.933594 12.789062 11.824219 12.792969 11.710938 C 12.773438 11.710938 12.757812 11.710938 12.742188 11.710938 C 12.71875 11.714844 12.695312 11.714844 12.671875 11.714844 C 12.652344 11.714844 12.628906 11.714844 12.605469 11.714844 C 12.550781 11.710938 12.550781 11.710938 12.527344 11.6875 C 12.527344 11.648438 12.523438 11.609375 12.523438 11.566406 C 12.523438 11.546875 12.523438 11.523438 12.523438 11.503906 C 12.527344 11.449219 12.527344 11.449219 12.550781 11.425781 C 12.632812 11.421875 12.710938 11.421875 12.792969 11.425781 C 12.792969 11.289062 12.792969 11.15625 12.792969 11.015625 Z M 12.792969 11.015625 "/>
<path style=" stroke:none;fill-rule:nonzero;fill:rgb(100%,100%,100%);fill-opacity:1;" d="M 13.796875 11.421875 C 13.828125 11.421875 13.855469 11.421875 13.882812 11.421875 C 13.914062 11.421875 13.941406 11.421875 13.96875 11.421875 C 14.039062 11.425781 14.039062 11.425781 14.0625 11.449219 C 14.066406 11.492188 14.066406 11.539062 14.066406 11.585938 C 14.066406 11.613281 14.066406 11.644531 14.066406 11.671875 C 14.066406 11.707031 14.066406 11.738281 14.066406 11.769531 C 14.066406 11.800781 14.066406 11.835938 14.066406 11.867188 C 14.066406 11.9375 14.066406 12.003906 14.066406 12.074219 C 14.066406 12.164062 14.066406 12.25 14.066406 12.339844 C 14.066406 12.40625 14.066406 12.472656 14.066406 12.542969 C 14.066406 12.574219 14.066406 12.605469 14.066406 12.640625 C 14.066406 12.683594 14.066406 12.730469 14.066406 12.773438 C 14.066406 12.800781 14.066406 12.828125 14.066406 12.855469 C 14.0625 12.910156 14.0625 12.910156 14.039062 12.9375 C 13.988281 12.9375 13.9375 12.9375 13.882812 12.9375 C 13.855469 12.9375 13.828125 12.9375 13.796875 12.9375 C 13.726562 12.9375 13.726562 12.9375 13.703125 12.910156 C 13.703125 12.867188 13.699219 12.820312 13.699219 12.773438 C 13.699219 12.746094 13.699219 12.71875 13.699219 12.6875 C 13.699219 12.65625 13.699219 12.621094 13.699219 12.589844 C 13.699219 12.558594 13.699219 12.523438 13.699219 12.492188 C 13.699219 12.421875 13.699219 12.355469 13.699219 12.285156 C 13.699219 12.199219 13.699219 12.109375 13.699219 12.019531 C 13.699219 11.953125 13.699219 11.886719 13.699219 11.820312 C 13.699219 11.785156 13.699219 11.753906 13.699219 11.722656 C 13.699219 11.675781 13.699219 11.628906 13.699219 11.585938 C 13.699219 11.558594 13.699219 11.53125 13.699219 11.507812 C 13.707031 11.421875 13.710938 11.425781 13.796875 11.421875 Z M 13.796875 11.421875 "/>
<path style=" stroke:none;fill-rule:nonzero;fill:rgb(100%,100%,100%);fill-opacity:1;" d="M 13.945312 10.800781 C 14.054688 10.855469 14.054688 10.855469 14.089844 10.921875 C 14.105469 11.089844 14.105469 11.089844 14.039062 11.171875 C 13.949219 11.21875 13.875 11.230469 13.777344 11.207031 C 13.691406 11.148438 13.660156 11.117188 13.640625 11.015625 C 13.660156 10.929688 13.691406 10.886719 13.753906 10.824219 C 13.820312 10.789062 13.867188 10.792969 13.945312 10.800781 Z M 13.945312 10.800781 "/>
</g>
</svg>
