<?xml version="1.0" encoding="UTF-8"?>
<svg version="1.1" xmlns="http://www.w3.org/2000/svg" width="1000" height="1000">
<path d="M0 0 C1.40088867 -0.02416992 1.40088867 -0.02416992 2.83007812 -0.04882812 C11.57730423 -0.05489837 19.46222712 1.43422021 26.5625 6.8125 C27.35398437 7.4003125 28.14546875 7.988125 28.9609375 8.59375 C29.69570312 9.1609375 30.43046875 9.728125 31.1875 10.3125 C31.94289063 10.8384375 32.69828125 11.364375 33.4765625 11.90625 C34.32347656 12.60234375 34.32347656 12.60234375 35.1875 13.3125 C35.1875 13.9725 35.1875 14.6325 35.1875 15.3125 C36.1775 15.3125 37.1675 15.3125 38.1875 15.3125 C38.1875 14.6525 38.1875 13.9925 38.1875 13.3125 C49.08693141 4.40873913 58.97384076 -0.04780559 73 0 C74.40088867 -0.02416992 74.40088867 -0.02416992 75.83007812 -0.04882812 C89.21637348 -0.05811771 99.78410799 4.98280828 109.5 14.125 C113.54345496 18.4247885 116.51900203 23.06234867 119.1875 28.3125 C119.60257813 29.09753906 120.01765625 29.88257813 120.4453125 30.69140625 C125.23738736 41.39817491 125.0109563 55.54983838 121.125 66.5 C118.00221785 73.41282544 113.58892152 79.04202204 108.1875 84.3125 C109.56011114 87.38904221 111.15795421 89.47063813 113.5 91.875 C122.89792755 102.33240164 124.03551685 114.46115875 123.43164062 127.86669922 C122.70352456 135.16096598 119.51423217 141.86112687 116.1875 148.3125 C115.5275 148.3125 114.8675 148.3125 114.1875 148.3125 C113.94773437 149.04597656 113.70796875 149.77945313 113.4609375 150.53515625 C109.33518392 159.53334887 98.93194479 164.72240537 90.1875 168.3125 C84.91007916 169.92563589 79.40421897 169.53739452 73.9375 169.5625 C72.27654297 169.5934375 72.27654297 169.5934375 70.58203125 169.625 C58.46015269 169.68265459 48.89432008 165.34189187 39.6875 157.4375 C37.48037043 155.09661719 37.48037043 155.09661719 35.1875 155.3125 C34.8575 156.3025 34.5275 157.2925 34.1875 158.3125 C32.00624653 159.952826 29.86454972 161.42617405 27.5625 162.875 C26.95792969 163.27396484 26.35335937 163.67292969 25.73046875 164.08398438 C17.69071469 169.21811303 10.16046037 169.65255885 0.8125 169.625 C-0.81558594 169.64916992 -0.81558594 169.64916992 -2.4765625 169.67382812 C-14.9581019 169.68136529 -24.8822923 165.76029936 -34.11328125 157.171875 C-38.56216415 152.37948137 -42.10644838 147.26963837 -44.8125 141.3125 C-45.34359375 140.15621094 -45.8746875 138.99992188 -46.421875 137.80859375 C-48.44386733 132.28969123 -48.2881544 126.75084306 -48.25 120.9375 C-48.2799707 119.32875 -48.2799707 119.32875 -48.31054688 117.6875 C-48.30475955 108.17314463 -45.99893632 100.65238728 -40.25 93 C-37.91507321 89.85382916 -35.78511855 86.7001276 -33.8125 83.3125 C-34.4725 83.3125 -35.1325 83.3125 -35.8125 83.3125 C-44.63683867 72.70590574 -48.00160157 63.29914755 -48.125 49.75 C-48.15400391 48.71552734 -48.18300781 47.68105469 -48.21289062 46.61523438 C-48.30648841 35.11710606 -44.59207934 26.44455633 -37.8125 17.3125 C-37.19375 16.425625 -36.575 15.53875 -35.9375 14.625 C-26.16485852 3.99006662 -14.0885569 -0.04801826 0 0 Z M-23.8125 24.3125 C-30.78806841 32.13214404 -34.22634547 40.43088181 -34.0234375 51.04296875 C-33.22841496 59.59682235 -30.44865525 65.93474538 -24.8125 72.3125 C-24.1628125 73.08078125 -23.513125 73.8490625 -22.84375 74.640625 C-18.29088707 79.8863149 -13.41891101 84.63082232 -8.26416016 89.26782227 C-5.1012854 92.11420763 -2.04785225 95.03082331 0.9375 98.0625 C4.23983565 101.40648673 7.6385371 104.56037334 11.2109375 107.61328125 C12.58881589 108.79782097 13.94692488 110.00558107 15.2890625 111.23046875 C20.84194185 116.27381423 24.45145124 118.67231622 32.1875 118.3125 C29.9940923 122.30378286 27.44301877 125.38396591 24.25 128.625 C23.39535156 129.50800781 22.54070312 130.39101563 21.66015625 131.30078125 C19.1875 133.3125 19.1875 133.3125 15.1875 133.3125 C14.83365234 132.45205078 14.83365234 132.45205078 14.47265625 131.57421875 C12.89917911 128.80509028 11.03946589 127.19940027 8.625 125.125 C4.19883616 121.25772767 0.06340415 117.20964988 -4 112.96484375 C-5.65006242 111.08793243 -5.65006242 111.08793243 -7.8125 111.3125 C-8.01617187 110.77109375 -8.21984375 110.2296875 -8.4296875 109.671875 C-10.36562808 106.36874474 -13.09949336 104.07127153 -15.9375 101.5625 C-16.50082031 101.05589844 -17.06414062 100.54929687 -17.64453125 100.02734375 C-19.02901531 98.78365468 -20.42011488 97.54733695 -21.8125 96.3125 C-26.64930166 97.92476722 -28.42647252 101.97723148 -30.8125 106.3125 C-35.08387957 116.45307151 -34.8306775 126.10089101 -30.8125 136.3125 C-25.71684196 145.26850504 -17.67884823 151.81352927 -7.75 154.5625 C3.5354179 156.75899073 12.49354031 154.12066787 22.1875 148.3125 C25.94392504 145.29646483 29.27550585 141.95321961 32.625 138.49609375 C33.55296387 137.56201187 34.48092773 136.62792999 35.43701172 135.6655426 C37.87561566 133.20991301 40.29527637 130.73642773 42.71148682 128.25878906 C44.68566899 126.24076883 46.67304484 124.23602782 48.66120911 122.23179531 C52.78017654 118.07892432 56.88885822 113.91582846 60.9765625 109.73217773 C61.69537598 108.99748764 62.41418945 108.26279755 63.15478516 107.50584412 C68.56466682 101.66846257 70.33939294 98.36282579 70.1875 90.3125 C71.5075 90.3125 72.8275 90.3125 74.1875 90.3125 C74.1875 90.9725 74.1875 91.6325 74.1875 92.3125 C75.87272729 94.01734466 75.87272729 94.01734466 78 95.75 C79.40093321 96.93147919 80.7970077 98.1187504 82.1875 99.3125 C82.78949219 99.79847656 83.39148438 100.28445313 84.01171875 100.78515625 C85.1875 102.3125 85.1875 102.3125 84.98413086 104.16870117 C83.99071789 106.84205676 82.66508517 108.16097398 80.6171875 110.140625 C79.885 110.85863281 79.1528125 111.57664062 78.3984375 112.31640625 C77.24214844 113.42822266 77.24214844 113.42822266 76.0625 114.5625 C71.11385067 119.36610271 66.33221549 124.1936487 61.83984375 129.42871094 C59.27297012 132.35512892 56.52389355 135.08385189 53.75 137.8125 C53.20923828 138.34875 52.66847656 138.885 52.11132812 139.4375 C50.80573383 140.73154036 49.49697004 142.02238174 48.1875 143.3125 C53.54723992 150.51917733 60.45232473 153.78731067 69.1875 155.3125 C79.68726582 156.17313654 89.09750944 153.04362496 97.1875 146.3125 C104.26320251 139.58426502 108.25292502 131.51596379 108.5 121.75 C108.29638065 109.7510026 103.52965067 102.60151964 95.23583984 94.35498047 C93.18291218 92.3079253 91.15167361 90.24054559 89.12347412 88.16902161 C86.63122712 85.6263506 84.12823211 83.09434884 81.625 80.5625 C81.12647522 80.05657318 80.62795044 79.55064636 80.11431885 79.02938843 C78.68450729 77.58191653 77.24670236 76.14235383 75.80859375 74.703125 C74.9673999 73.85782227 74.12620605 73.01251953 73.25952148 72.14160156 C71.39824698 70.091902 71.39824698 70.091902 69.1875 70.3125 C68.93355469 69.72210938 68.67960937 69.13171875 68.41796875 68.5234375 C67.05243092 66.06980445 65.64658316 64.73405094 63.5 62.9375 C62.79230469 62.339375 62.08460938 61.74125 61.35546875 61.125 C60.64003906 60.526875 59.92460937 59.92875 59.1875 59.3125 C57.89515202 58.18828273 56.60343135 57.06334369 55.3125 55.9375 C52.13831344 53.17669588 50.31325832 52.18143938 46.0625 52.25 C44.144375 52.2809375 44.144375 52.2809375 42.1875 52.3125 C42.1875 50.9925 42.1875 49.6725 42.1875 48.3125 C42.7546875 48.07789063 43.321875 47.84328125 43.90625 47.6015625 C47.59493716 45.51720161 50.11919373 42.30446263 52.96875 39.2109375 C55.1875 37.3125 55.1875 37.3125 59.1875 37.3125 C59.1875 37.9725 59.1875 38.6325 59.1875 39.3125 C60.54611181 40.65036362 60.54611181 40.65036362 62.3125 42 C64.85465116 44.09893042 67.03889734 46.19840335 69.125 48.75 C71.14557102 51.18626142 73.20527272 53.27346257 75.625 55.3125 C82.55878863 61.1879021 88.80679356 67.85078849 95.1875 74.3125 C96.1775 73.9825 97.1675 73.6525 98.1875 73.3125 C98.1875 72.6525 98.1875 71.9925 98.1875 71.3125 C98.8475 71.3125 99.5075 71.3125 100.1875 71.3125 C106.6662881 62.40416636 109.27370737 54.29677207 108.1875 43.3125 C105.89763564 33.51552351 100.85406086 25.44680053 92.59375 19.6328125 C83.26963797 14.51666012 74.2010756 13.1303155 64 15.75 C55.18714367 18.6200096 48.10904222 23.81548629 42.11328125 30.8359375 C38.98622879 34.49186747 35.67314771 37.89476843 32.25390625 41.2734375 C31.72714294 41.79462158 31.20037964 42.31580566 30.65765381 42.8527832 C28.46136012 45.02163048 26.26116249 47.18643546 24.05688477 49.34716797 C22.43075081 50.94328899 20.81074105 52.54542323 19.19140625 54.1484375 C18.68839493 54.6379892 18.18538361 55.12754089 17.66712952 55.63192749 C16.46888007 56.82133537 15.32266637 58.06274396 14.1875 59.3125 C14.1875 59.9725 14.1875 60.6325 14.1875 61.3125 C13.1975 61.6425 12.2075 61.9725 11.1875 62.3125 C11.1875 62.9725 11.1875 63.6325 11.1875 64.3125 C10.5275 64.3125 9.8675 64.3125 9.1875 64.3125 C4.8718941 69.36491666 3.53512027 72.70771488 3.1875 79.3125 C-1.05807659 77.12538479 -4.00859881 74.25495935 -7.26171875 70.8359375 C-8.75429261 69.21336307 -8.75429261 69.21336307 -10.8125 68.3125 C-10.29789161 64.29466255 -9.37870273 62.39480989 -6.4609375 59.60546875 C-5.77386719 58.93580078 -5.08679688 58.26613281 -4.37890625 57.57617188 C-3.65574219 56.89103516 -2.93257812 56.20589844 -2.1875 55.5 C2.59849949 50.89468741 7.19029998 46.25734349 11.51757812 41.21606445 C14.09059337 38.28305277 16.84468497 35.54746485 19.625 32.8125 C20.16576172 32.27625 20.70652344 31.74 21.26367188 31.1875 C22.56926617 29.89345964 23.87802996 28.60261826 25.1875 27.3125 C23.04959547 22.41225347 19.79514885 19.89886893 15.1875 17.3125 C1.5321894 12.50454378 -13.12160963 13.69483491 -23.8125 24.3125 Z " fill="#FFFFFF" transform="translate(204.8125,415.6875)"/>
<path d="M0 0 C10.20085267 7.50660753 16.54398716 17.00509205 19.0390625 29.48046875 C20.41913668 43.74123531 18.95027911 57.4084931 10.4140625 69.35546875 C2.4516116 78.27890511 -8.04084515 83.71260879 -19.9609375 84.609375 C-33.4239602 85.0369915 -44.99356266 81.88869988 -55.5859375 73.35546875 C-64.82566126 63.91957252 -68.58573821 51.86628548 -68.8984375 38.98046875 C-68.68139907 26.18796829 -64.74620794 14.73005196 -56.0859375 5.10546875 C-40.87486552 -9.19175976 -17.43497407 -11.08780073 0 0 Z M-45.5859375 16.35546875 C-52.77242013 25.44379711 -52.80106445 35.95956016 -51.88427734 47.04492188 C-50.87475545 54.86334675 -46.73913735 60.1617644 -40.67578125 64.94921875 C-33.76444267 69.5998391 -26.81119099 70.28943302 -18.5859375 69.35546875 C-10.40771822 67.40107211 -4.85047258 63.33461128 -0.26953125 56.34765625 C4.13606677 47.53646021 3.85673085 35.52361199 1.6484375 26.08203125 C-1.5712995 17.57272632 -6.39644047 13.10418218 -14.5859375 9.35546875 C-25.94838587 5.6304599 -36.89065457 8.68316028 -45.5859375 16.35546875 Z " fill="#FFFFFF" transform="translate(429.5859375,456.64453125)"/>
<path d="M0 0 C8.46266692 7.41408574 12.44554559 14.730068 13.53515625 26.00390625 C13.82102235 36.56733929 11.35445185 45.93871617 4.2421875 53.97265625 C-3.48157283 60.33420136 -10.1893354 62.47600864 -20.15625 62.37109375 C-25.43510401 61.78709905 -30.90939507 59.82107368 -34.7578125 55.97265625 C-35.0878125 65.21265625 -35.4178125 74.45265625 -35.7578125 83.97265625 C-38.2121875 83.99328125 -40.6665625 84.01390625 -43.1953125 84.03515625 C-43.96931396 84.04426025 -44.74331543 84.05336426 -45.54077148 84.06274414 C-47.28002967 84.06990538 -49.01926554 84.02290327 -50.7578125 83.97265625 C-52.54638312 82.18408563 -51.87771829 79.77142491 -51.88223267 77.39056396 C-51.87863739 76.58999573 -51.87504211 75.78942749 -51.87133789 74.96459961 C-51.87148392 74.12564651 -51.87162994 73.28669342 -51.8717804 72.4223175 C-51.871081 69.63568581 -51.86328735 66.84912009 -51.85546875 64.0625 C-51.85360467 62.13578834 -51.85218072 60.2090762 -51.85118103 58.28236389 C-51.84735509 53.20078228 -51.83752416 48.11922905 -51.82647705 43.03765869 C-51.81626456 37.85648991 -51.81168376 32.67531656 -51.80664062 27.49414062 C-51.79590196 17.32029799 -51.77830455 7.14648392 -51.7578125 -3.02734375 C-46.4778125 -3.02734375 -41.1978125 -3.02734375 -35.7578125 -3.02734375 C-35.4278125 -1.37734375 -35.0978125 0.27265625 -34.7578125 1.97265625 C-33.9534375 1.18890625 -33.1490625 0.40515625 -32.3203125 -0.40234375 C-23.52302146 -7.72650351 -8.86293874 -6.51538981 0 0 Z M-34.2578125 16.97265625 C-37.42925798 23.31554722 -37.80576686 30.32607569 -35.6953125 37.09765625 C-33.63122414 42.12887163 -29.56602697 45.56854902 -24.7578125 47.97265625 C-19.41653017 48.59270561 -14.3668021 48.92689556 -9.7578125 45.84765625 C-5.16545601 41.96942218 -3.12981068 36.77848377 -2.5546875 30.89453125 C-2.40284298 23.85906863 -3.59899856 18.58595733 -8.1328125 13.09765625 C-11.78406068 10.14188391 -14.36997009 9.15948119 -19.0078125 8.53515625 C-25.42285964 9.28357842 -30.13622191 12.02674754 -34.2578125 16.97265625 Z " fill="#FFFFFF" transform="translate(507.7578125,479.02734375)"/>
<path d="M0 0 C5.31171198 5.4783975 6.32257342 10.06374386 6.32037354 17.49461365 C6.29972839 18.57404739 6.27908325 19.65348114 6.2578125 20.765625 C6.25215271 21.88771866 6.24649292 23.00981232 6.24066162 24.16590881 C6.21836091 27.73214276 6.16817399 31.29735353 6.1171875 34.86328125 C6.09711445 37.2883969 6.0788651 39.71352837 6.0625 42.13867188 C6.01851641 48.06809956 5.94953052 53.99676722 5.8671875 59.92578125 C1.5771875 59.92578125 -2.7128125 59.92578125 -7.1328125 59.92578125 C-7.7928125 57.61578125 -8.4528125 55.30578125 -9.1328125 52.92578125 C-9.78636719 53.54066406 -9.78636719 53.54066406 -10.453125 54.16796875 C-16.93188629 60.02970515 -22.29707451 61.45359791 -31.0234375 61.3125 C-37.10160161 60.55654743 -41.85927749 57.68777089 -46.6328125 53.98828125 C-50.59412502 48.54147653 -50.79145278 42.42719817 -50.1328125 35.92578125 C-48.34718645 30.46386628 -44.86878361 27.01604811 -40.1328125 23.92578125 C-32.31934695 20.36416621 -24.171205 19.76247009 -15.6953125 19.86328125 C-14.59799805 19.87004883 -14.59799805 19.87004883 -13.47851562 19.87695312 C-11.69657831 19.88859977 -9.91468387 19.90652934 -8.1328125 19.92578125 C-8.58363719 18.46510926 -9.04374787 17.00730093 -9.5078125 15.55078125 C-9.76304687 14.73867188 -10.01828125 13.9265625 -10.28125 13.08984375 C-11.03135533 10.7611894 -11.03135533 10.7611894 -13.1328125 8.92578125 C-17.77187839 7.79781825 -22.52550707 7.33739039 -27.0703125 8.98828125 C-30.61729144 11.23228833 -31.66711743 13.04600017 -33.1328125 16.92578125 C-35.09107123 16.95272976 -37.04943476 16.97215343 -39.0078125 16.98828125 C-40.09835937 16.99988281 -41.18890625 17.01148438 -42.3125 17.0234375 C-45.1328125 16.92578125 -45.1328125 16.92578125 -47.1328125 15.92578125 C-46.45157483 9.1134046 -44.95436668 4.3720859 -39.8828125 -0.32421875 C-36.47606735 -3.05961371 -33.46244379 -4.23867587 -29.1328125 -5.07421875 C-27.9571875 -5.32171875 -26.7815625 -5.56921875 -25.5703125 -5.82421875 C-16.47729879 -6.76182522 -7.54067619 -5.20805457 0 0 Z M-34.2578125 36.17578125 C-35.46798729 39.078041 -35.46798729 39.078041 -34.0078125 42.61328125 C-32.36464324 46.09684359 -32.36464324 46.09684359 -29.1328125 47.92578125 C-23.28948197 48.70019855 -18.03270105 48.42570164 -13.1328125 44.92578125 C-10.27087641 41.59974742 -8.97441442 39.01682546 -8.52734375 34.71875 C-8.39714844 33.46707031 -8.26695312 32.21539063 -8.1328125 30.92578125 C-10.8209374 30.84413966 -13.5065355 30.78498457 -16.1953125 30.73828125 C-16.94748047 30.71314453 -17.69964844 30.68800781 -18.47460938 30.66210938 C-24.70039087 30.58125507 -29.79408006 31.44947631 -34.2578125 36.17578125 Z " fill="#FFFFFF" transform="translate(837.1328125,480.07421875)"/>
<path d="M0 0 C0.77085937 0.14179688 1.54171875 0.28359375 2.3359375 0.4296875 C10.1568845 2.43294761 16.41012982 7.94629015 20.70703125 14.671875 C25.73860519 24.47401905 26.91730024 35.15413627 23.5 45.8125 C19.78819689 54.62478781 13.90713672 60.17634494 5.296875 64.125 C-3.20214623 67.36272237 -12.81477268 67.23687567 -21.3125 64.0625 C-28.83328786 60.48786652 -34.80552364 55.12586221 -38.5625 47.625 C-41.51927781 38.94542642 -41.88983155 26.39102081 -38.4375 17.8125 C-33.55072506 9.1440865 -26.92079156 2.96102746 -17.3125 0.1875 C-11.27189588 -1.18060712 -6.06457973 -1.15428557 0 0 Z M-21.3125 19.375 C-24.93672971 25.01269066 -25.71229415 30.43353828 -25 37 C-23.39967061 43.97643594 -19.96926875 48.0204875 -14 52 C-8.5214304 52.67988021 -3.57025892 52.70100845 1.5 50.4375 C4.53767952 47.47576247 6.10431529 44.79136941 8 41 C8.33 40.34 8.66 39.68 9 39 C9.54981293 32.0321785 9.60309206 26.08798313 6 20 C2.77975788 16.28433601 -0.15492406 13.45226716 -5.11328125 12.6640625 C-12.16307687 12.53884411 -16.28370442 14.21029102 -21.3125 19.375 Z " fill="#FFFFFF" transform="translate(702,475)"/>
<path d="M0 0 C5.3876516 2.89636909 8.90924261 6.4432041 11.26187134 12.15750122 C12.50285923 16.51927316 12.23668468 20.99688754 12.16796875 25.49609375 C12.16372391 26.55159927 12.15947906 27.6071048 12.15510559 28.69459534 C12.13839049 32.04666271 12.10075088 35.3981161 12.0625 38.75 C12.04744393 41.03059024 12.03375714 43.31118996 12.02148438 45.59179688 C11.9885105 51.16557202 11.93838268 56.73899213 11.875 62.3125 C8.4059615 63.27720453 5.72047153 63.26022909 2.125 62.875 C1.14015625 62.77316406 0.1553125 62.67132812 -0.859375 62.56640625 C-1.98085938 62.44072266 -1.98085938 62.44072266 -3.125 62.3125 C-3.13958252 61.13743896 -3.15416504 59.96237793 -3.16918945 58.75170898 C-3.22739511 54.36989728 -3.30462608 49.98858752 -3.38745117 45.60717773 C-3.42059607 43.71500833 -3.44866017 41.82274254 -3.47143555 39.93041992 C-3.50517421 37.20189546 -3.55749865 34.474246 -3.61328125 31.74609375 C-3.61967117 30.90727158 -3.6260611 30.0684494 -3.63264465 29.20420837 C-3.7648291 23.85983401 -4.61837161 20.05930566 -7.125 15.3125 C-10.73009712 12.02549969 -14.28363767 11.83248873 -18.9765625 12.04296875 C-22.20666048 12.44819922 -23.76513231 13.02204019 -26.125 15.3125 C-28.84795755 21.25895118 -29.58405555 27.03629239 -29.63671875 33.50390625 C-29.65466995 34.33462143 -29.67262115 35.16533661 -29.69111633 36.02122498 C-29.74470918 38.6391004 -29.77894879 41.25679904 -29.8125 43.875 C-29.84571831 45.66473789 -29.88021206 47.45445259 -29.91601562 49.24414062 C-30.00040521 53.60013167 -30.06745691 57.95607497 -30.125 62.3125 C-35.075 62.3125 -40.025 62.3125 -45.125 62.3125 C-46.18136843 59.14339472 -46.25184465 56.90002355 -46.25439453 53.57177734 C-46.25754669 52.39400726 -46.26069885 51.21623718 -46.26394653 50.0027771 C-46.2619223 48.73084503 -46.25989807 47.45891296 -46.2578125 46.1484375 C-46.25876923 44.84548737 -46.25972595 43.54253723 -46.26071167 42.20010376 C-46.2621852 39.44458835 -46.26004448 36.68910539 -46.25537109 33.93359375 C-46.24966278 30.39474608 -46.25296192 26.85597406 -46.25894356 23.31712914 C-46.2634155 19.94839244 -46.26028972 16.57967635 -46.2578125 13.2109375 C-46.25983673 11.93495697 -46.26186096 10.65897644 -46.26394653 9.34432983 C-46.26079437 8.17286407 -46.25764221 7.00139832 -46.25439453 5.79443359 C-46.25359894 4.75757416 -46.25280334 3.72071472 -46.25198364 2.6524353 C-46.125 0.3125 -46.125 0.3125 -45.125 -0.6875 C-42.59450598 -0.76063567 -40.09195163 -0.77997527 -37.5625 -0.75 C-36.85158203 -0.74548828 -36.14066406 -0.74097656 -35.40820312 -0.73632812 C-33.64709987 -0.72450864 -31.88603964 -0.70657263 -30.125 -0.6875 C-29.795 0.9625 -29.465 2.6125 -29.125 4.3125 C-28.196875 3.508125 -27.26875 2.70375 -26.3125 1.875 C-19.78432036 -3.78275569 -7.70040458 -3.22584516 0 0 Z " fill="#FFFFFF" transform="translate(642.125,476.6875)"/>
<path d="M0 0 C1.39456452 0.00667256 2.78911118 0.01863093 4.18359375 0.03515625 C4.89451172 0.03966797 5.60542969 0.04417969 6.33789062 0.04882812 C8.09899388 0.06064761 9.86005411 0.07858362 11.62109375 0.09765625 C11.82677979 0.6896582 12.03246582 1.28166016 12.24438477 1.89160156 C17.01945135 15.63299085 21.80932402 29.36907574 26.62109375 43.09765625 C28.55333191 40.19929902 29.50176668 37.85252613 30.609375 34.57421875 C30.98384766 33.47585693 31.35832031 32.37749512 31.74414062 31.24584961 C32.13666016 30.0831958 32.52917969 28.92054199 32.93359375 27.72265625 C41.72789524 1.99085476 41.72789524 1.99085476 43.62109375 0.09765625 C45.9742293 0.02493884 48.32943043 0.01394757 50.68359375 0.03515625 C51.97394531 0.04417969 53.26429688 0.05320312 54.59375 0.0625 C55.59277344 0.07410156 56.59179688 0.08570313 57.62109375 0.09765625 C58.25922088 6.159864 55.95809406 10.6652588 53.62109375 16.09765625 C52.89842286 17.8984368 52.18234994 19.7018782 51.47265625 21.5078125 C50.92859131 22.88646484 50.92859131 22.88646484 50.37353516 24.29296875 C46.94497121 33.01212314 43.58649424 41.7374303 40.56103516 50.60571289 C39.09151785 54.89134569 37.4174459 58.90616789 35.62109375 63.09765625 C30.01109375 63.09765625 24.40109375 63.09765625 18.62109375 63.09765625 C14.96268144 54.37374998 11.39369486 45.77105971 8.50390625 36.76171875 C7.42075815 33.4931037 6.1354847 30.33407773 4.83203125 27.1484375 C3.13166865 22.86462076 1.53139197 18.54560842 -0.06640625 14.22265625 C-0.531073 12.97246704 -0.531073 12.97246704 -1.00512695 11.69702148 C-1.44344849 10.50701538 -1.44344849 10.50701538 -1.890625 9.29296875 C-2.15319092 8.58156738 -2.41575684 7.87016602 -2.6862793 7.13720703 C-3.36815935 5.12930222 -3.98018326 3.1814148 -4.37890625 1.09765625 C-3.37890625 0.09765625 -3.37890625 0.09765625 0 0 Z " fill="#FFFFFF" transform="translate(729.37890625,475.90234375)"/>
<path d="M0 0 C4.62 0 9.24 0 14 0 C14 5.61 14 11.22 14 17 C18.95 17 23.9 17 29 17 C29 20.96 29 24.92 29 29 C24.05 29 19.1 29 14 29 C14.04416951 33.91195369 14.11401757 38.82262391 14.20751953 43.73388672 C14.23571718 45.40403011 14.25693779 47.07430665 14.27099609 48.74462891 C14.29244337 51.14815372 14.33909845 53.55007983 14.390625 55.953125 C14.39185364 56.69806213 14.39308228 57.44299927 14.39434814 58.21051025 C14.49233459 61.6910808 14.74536193 63.66128332 16.86328125 66.47851562 C20.86337819 69.32684791 25.25803348 68.22580793 30 68 C30 71.63 30 75.26 30 79 C24.04215777 81.97892111 17.05376523 82.13847627 10.59375 80.32421875 C8.6875 79.5 8.6875 79.5 6 78 C6 77.34 6 76.68 6 76 C4.515 75.505 4.515 75.505 3 75 C-0.4006072 69.94957357 -0.4003736 65.5184125 -0.29296875 59.6640625 C-0.28872391 58.78471039 -0.28447906 57.90535828 -0.28010559 56.99935913 C-0.26339461 54.20758658 -0.22575692 51.41655212 -0.1875 48.625 C-0.17244334 46.72527089 -0.15875666 44.82553039 -0.14648438 42.92578125 C-0.11351598 38.28357242 -0.06178653 33.64191109 0 29 C-0.71027344 29.01160156 -1.42054688 29.02320313 -2.15234375 29.03515625 C-3.07144531 29.04417969 -3.99054687 29.05320312 -4.9375 29.0625 C-5.85402344 29.07410156 -6.77054688 29.08570313 -7.71484375 29.09765625 C-10 29 -10 29 -11 28 C-11.09823937 26.33570949 -11.12973631 24.66718069 -11.125 23 C-11.12757813 22.0925 -11.13015625 21.185 -11.1328125 20.25 C-11 18 -11 18 -10 17 C-6.66381769 16.85742811 -3.34024394 16.95771843 0 17 C0 11.39 0 5.78 0 0 Z " fill="#FFFFFF" transform="translate(533,459)"/>
<path d="M0 0 C1.1859375 0.00257813 2.371875 0.00515625 3.59375 0.0078125 C4.7796875 0.00523437 5.965625 0.00265625 7.1875 0 C10.09375 0.1328125 10.09375 0.1328125 11.09375 1.1328125 C11.19290795 3.02980099 11.22174314 4.93050037 11.22314453 6.83007812 C11.22629669 8.04804077 11.22944885 9.26600342 11.23269653 10.52087402 C11.23090675 11.86027055 11.2288558 13.19966674 11.2265625 14.5390625 C11.2272356 15.9028729 11.22820567 17.26668318 11.22946167 18.63049316 C11.23093838 21.49211771 11.22878497 24.3537111 11.22412109 27.21533203 C11.21842381 30.89099864 11.22170296 34.56659224 11.22769356 38.24225616 C11.23129991 41.05943354 11.23016025 43.87659348 11.22756577 46.69377136 C11.2268967 48.04941313 11.22772421 49.40505646 11.23004532 50.76069641 C11.23257301 52.65231294 11.22804014 54.54393499 11.22314453 56.43554688 C11.22234894 57.51396851 11.22155334 58.59239014 11.22073364 59.70349121 C11.09375 62.1328125 11.09375 62.1328125 10.09375 63.1328125 C7.92894203 63.2317419 5.76081215 63.2625235 3.59375 63.2578125 C2.4078125 63.26039063 1.221875 63.26296875 0 63.265625 C-2.90625 63.1328125 -2.90625 63.1328125 -3.90625 62.1328125 C-4.00540795 60.23582401 -4.03424314 58.33512463 -4.03564453 56.43554688 C-4.03879669 55.21758423 -4.04194885 53.99962158 -4.04519653 52.74475098 C-4.04340675 51.40535445 -4.0413558 50.06595826 -4.0390625 48.7265625 C-4.0397356 47.3627521 -4.04070567 45.99894182 -4.04196167 44.63513184 C-4.04343838 41.77350729 -4.04128497 38.9119139 -4.03662109 36.05029297 C-4.03092381 32.37462636 -4.03420296 28.69903276 -4.04019356 25.02336884 C-4.04379991 22.20619146 -4.04266025 19.38903152 -4.04006577 16.57185364 C-4.0393967 15.21621187 -4.04022421 13.86056854 -4.04254532 12.50492859 C-4.04507301 10.61331206 -4.04054014 8.72169001 -4.03564453 6.83007812 C-4.03484894 5.75165649 -4.03405334 4.67323486 -4.03323364 3.56213379 C-3.84767487 0.01221289 -3.60165243 0.16459164 0 0 Z " fill="#FFFFFF" transform="translate(574.90625,475.8671875)"/>
<path d="M0 0 C4.63235294 2.26470588 4.63235294 2.26470588 6 5 C6.69064748 12.13669065 6.69064748 12.13669065 4 15.5 C0.16805752 17.41597124 -2.7998134 17.97383359 -7 17 C-10.44652326 14.55871269 -11.78056289 13.17033126 -12.5625 9 C-11.87642343 5.34092496 -10.57265686 3.64832324 -8 1 C-5.17998673 -0.41000664 -3.12992745 -0.24548451 0 0 Z " fill="#FFFFFF" transform="translate(581,450)"/>
</svg>
